<svg width="33" height="32" fill="none" xmlns="http://www.w3.org/2000/svg"><path d="M16.374 0A16.659 16.659 0 005.313 4.296c-6.712 6.059-7.104 16.357-.95 22.966.279.33.614.606.95.937.167.11.393.112.56-.053l.729-.828a.427.427 0 000-.606C.729 21.37.336 12.281 5.818 6.498 11.298.715 20.472.33 26.345 5.728c5.873 5.398 6.263 14.428.781 20.211-.28.276-.502.552-.781.772a.427.427 0 000 .606l.728.828c.167.165.447.163.614.052a16.094 16.094 0 00.951-22.966C25.34 1.72 20.858-.034 16.374.001zm.532 4.763a11.942 11.942 0 00-8.46 3.112 11.452 11.452 0 00-.614 16.358c.167.166.334.385.558.55a.443.443 0 00.615 0l.728-.825a.427.427 0 000-.605c-1.958-1.818-3.131-4.407-3.131-7.106 0-5.342 4.416-9.694 9.842-9.694 5.425 0 9.844 4.405 9.844 9.747a9.688 9.688 0 01-3.077 7.053.427.427 0 000 .605l.728.826c.167.165.447.22.614.055a11.517 11.517 0 00.562-16.413c-2.21-2.341-5.19-3.567-8.21-3.663zm-.366 4.49a7.208 7.208 0 00-5.075 1.98c-2.853 2.7-2.907 7.105-.167 9.915l.167.166a.443.443 0 00.615 0l.728-.828a.427.427 0 000-.605 5.123 5.123 0 01-1.51-3.634 4.985 4.985 0 01.388-1.94 5.047 5.047 0 011.115-1.646 5.136 5.136 0 011.671-1.098 5.2 5.2 0 011.972-.382 5.2 5.2 0 011.97.382 5.137 5.137 0 011.672 1.098 5.04 5.04 0 011.115 1.646c.258.615.39 1.275.388 1.94 0 1.378-.559 2.643-1.566 3.634a.427.427 0 000 .605l.728.828a.444.444 0 00.615 0c2.797-2.699 2.91-7.105.17-9.914a7.103 7.103 0 00-4.996-2.147zm.008 10.485a.83.83 0 00-.553.198l-.053.056-9.845 10.905a.677.677 0 00.056.937c.112.11.278.166.39.166h19.745c.336 0 .672-.276.672-.661a.622.622 0 00-.167-.442L17.06 19.992a.692.692 0 00-.51-.254z" fill="#fff"/></svg>