<svg width="57" height="38" fill="none" xmlns="http://www.w3.org/2000/svg"><path clip-rule="evenodd" d="M3.55 23.401l9.24 10.808A4.858 4.858 0 0016.473 36l14.05-.026h12.046c6.762.04 12.276-5.407 12.32-12.169v-9.633C54.847 7.41 49.332 1.96 42.569 2l-26.096.027a4.858 4.858 0 00-3.683 1.787L3.55 14.626a6.989 6.989 0 000 8.775v0z" stroke="#fff" stroke-width="3.5" stroke-linecap="round" stroke-linejoin="round"/><path d="M26.404 12.082a1.75 1.75 0 10-2.446 2.503l2.446-2.503zm3.353 8.17a1.75 1.75 0 002.446-2.504l-2.446 2.504zm2.45-2.501a1.75 1.75 0 00-2.452 2.498l2.451-2.498zm3.324 8.165a1.75 1.75 0 002.452-2.499l-2.452 2.499zm-3.328-5.665a1.75 1.75 0 00-2.446-2.503l2.446 2.503zm-8.245 3.164a1.75 1.75 0 002.446 2.503l-2.446-2.503zm5.797-5.664a1.75 1.75 0 102.451 2.498l-2.45-2.498zm8.228-3.169a1.75 1.75 0 10-2.452-2.498l2.452 2.498zm-14.025.003l5.799 5.667 2.446-2.504-5.799-5.666-2.446 2.503zm5.797 5.664l5.776 5.667 2.452-2.499-5.777-5.666-2.45 2.498zm.002-2.5l-5.799 5.666 2.446 2.503 5.8-5.666-2.447-2.504zm2.45 2.5l5.776-5.666-2.452-2.499-5.776 5.667 2.451 2.498z" fill="#fff"/></svg>