<svg width="20" height="20" fill="none" xmlns="http://www.w3.org/2000/svg"><path d="M18.06 13.077l-2.42-2.411a3.507 3.507 0 00-4.511-.357L9.694 8.88c.419-.565.658-1.25.658-1.994 0-.923-.359-1.816-1.016-2.47l-2.42-2.411c-1.345-1.34-3.556-1.34-4.93 0C1.359 2.689 1 3.552 1 4.475c0 .923.359 1.786 1.016 2.44l2.39 2.412a3.47 3.47 0 004.302.476l1.494 1.488a3.333 3.333 0 00-.537 1.845c0 .923.358 1.786 1.015 2.441l2.39 2.411A3.47 3.47 0 0015.52 19c.897 0 1.793-.327 2.45-1.012a3.415 3.415 0 001.016-2.44c.09-.923-.268-1.787-.926-2.471zM5.362 8.374l-2.39-2.41a2.111 2.111 0 01-.627-1.519c0-.565.209-1.101.627-1.518a2.127 2.127 0 011.524-.625 2.18 2.18 0 011.523.625l2.42 2.381c.389.417.628.953.628 1.518 0 .387-.09.715-.269 1.042l-.747-.744a.67.67 0 00-.956 0 .663.663 0 000 .952l.687.685c-.836.417-1.792.268-2.42-.387zm11.712 8.662c-.836.833-2.21.833-3.017 0l-2.39-2.411a2.111 2.111 0 01-.628-1.518c0-.298.06-.596.18-.864l.686.655c.12.12.3.209.478.209.18 0 .359-.06.479-.209a.663.663 0 000-.952l-.748-.655a2.178 2.178 0 012.57.357l2.42 2.381c.389.417.628.953.628 1.518-.03.566-.24 1.102-.658 1.489z" fill="#fff" stroke="#fff" stroke-width=".5"/></svg>