<svg width="23" height="20" fill="none" xmlns="http://www.w3.org/2000/svg"><path d="M4.857 14.858a1 1 0 10-.078-1.999l.078 1.999zM1 10.43l-1-.032a1 1 0 00.001.08L1 10.43zm2.865-3.32l.194.981a1 1 0 00.806-.981h-1zm0-.108l-.999-.048a1 1 0 000 .048h1zm3.817-3.427l-.039 1h.04l-.001-1zm1.4.238l-.332.943a1 1 0 001.218-.478l-.886-.465zm4.804-2.809l-.019 1h.06l-.04-1zm5.25 4.714l1-.001v-.045l-1 .046zm-.218 1.35l-.949-.316a1 1 0 00.81 1.306l.14-.99zM22 10.43l.999.048a1.003 1.003 0 000-.083L22 10.43zm-3.779 2.43a1 1 0 10-.078 1.998l.078-1.999zM10.501 19a1 1 0 102 0h-2zm2-7.712a1 1 0 10-2 0h2zm-1.7 6.998a1 1 0 101.399 1.428l-1.4-1.428zm4.024-1.142a1 1 0 10-1.4-1.43l1.4 1.43zm-4.025 2.57a1 1 0 101.4-1.428l-1.4 1.428zm-1.225-4a1 1 0 10-1.4 1.43l1.4-1.43zM4.779 12.86c-1.49.059-2.713-1.068-2.78-2.476L0 10.478c.122 2.544 2.309 4.48 4.856 4.38l-.078-1.999zm-2.78-2.397c.037-1.145.877-2.137 2.06-2.37L3.672 6.13C1.602 6.537.068 8.295 0 10.399l1.998.063zM4.865 7.11v-.108h-2v.108h2zm-.001-.06c.068-1.408 1.29-2.533 2.78-2.476l.077-1.998c-2.547-.1-4.732 1.836-4.855 4.378l1.998.096zm2.82-2.475c.364 0 .725.06 1.066.181l.665-1.886a5.193 5.193 0 00-1.735-.295l.004 2zm2.284-.297c.743-1.415 2.252-2.305 3.9-2.274l.037-2C11.517-.04 9.3 1.25 8.197 3.349l1.77.93zm3.959-2.274c2.247-.092 4.11 1.61 4.21 3.76l1.998-.092c-.152-3.288-2.983-5.802-6.29-5.667l.082 1.999zm4.21 3.715c0 .35-.057.7-.168 1.033l1.898.63c.179-.537.27-1.099.27-1.665l-2 .002zm.642 2.339c1.258.177 2.179 1.203 2.222 2.408l1.998-.071c-.078-2.204-1.753-4.01-3.941-4.318l-.279 1.98zm2.222 2.325c-.067 1.408-1.29 2.535-2.78 2.476l-.078 1.999c2.547.1 4.734-1.836 4.856-4.38L21 10.383zM12.501 19v-7.712h-2V19h2zm-.301.714l2.625-2.57-1.4-1.43-2.625 2.572 1.4 1.428zm0-1.428l-2.625-2.571-1.4 1.429 2.625 2.57 1.4-1.428z" fill="#fff"/></svg>