<svg width="63" height="38" fill="none" xmlns="http://www.w3.org/2000/svg"><path d="M18.168 37.233a1.75 1.75 0 002.483-2.466l-2.483 2.466zM3.242 17.24a1.75 1.75 0 00-2.484 2.466l2.484-2.466zm-2.445-.038a1.75 1.75 0 102.406 2.542L.797 17.202zm19.815-13.93A1.75 1.75 0 0018.206.728l2.406 2.542zM2 16.721a1.75 1.75 0 100 3.5v-3.5zm43.702 1.75l.006-1.75h-.006v1.75zM56.502 14l1.239 1.236L56.5 14zM62.75 3.14a1.75 1.75 0 00-3.5-.01l3.5.01zm-42.1 31.628L3.243 17.24.758 19.706l17.41 17.527 2.483-2.466zM3.204 19.744L20.612 3.271 18.206.73.797 17.202l2.406 2.542zM2 20.223h43.702v-3.5H2v3.5zm43.697 0a16.936 16.936 0 0012.044-4.988l-2.478-2.471a13.436 13.436 0 01-9.555 3.959l-.011 3.5zm12.044-4.988A17.196 17.196 0 0062.75 3.14l-3.5-.01a13.696 13.696 0 01-3.987 9.635l2.478 2.471z" fill="#fff"/></svg>