<svg width="39" height="42" fill="none" xmlns="http://www.w3.org/2000/svg"><path d="M25.333 7.588H3.167m22.166 0c0 3.087 2.612 5.589 5.834 5.589 3.221 0 5.833-2.502 5.833-5.589C37 4.502 34.388 2 31.167 2c-3.222 0-5.834 2.502-5.834 5.588zM35.833 21H13.667m0 0c0 3.086-2.612 5.588-5.834 5.588C4.612 26.588 2 24.086 2 21c0-3.086 2.612-5.588 5.833-5.588 3.222 0 5.834 2.502 5.834 5.588zm11.666 13.412H3.167m22.166 0c0 3.086 2.612 5.588 5.834 5.588C34.388 40 37 37.498 37 34.412c0-3.086-2.612-5.588-5.833-5.588-3.222 0-5.834 2.502-5.834 5.588z" stroke="#fff" stroke-width="3" stroke-linecap="round" stroke-linejoin="round"/></svg>