<svg width="34" height="34" fill="none" xmlns="http://www.w3.org/2000/svg"><path d="M10.294 1h-6.02a3.2 3.2 0 00-3.221 3.221v6.02c0 .634.528 1.214 1.214 1.214.687 0 1.215-.528 1.215-1.214V4.22c-.053-.475.317-.845.792-.845h6.02c.633 0 1.214-.528 1.214-1.214 0-.687-.58-1.162-1.214-1.162zm19.432 0h-6.02c-.634 0-1.215.528-1.215 1.215 0 .686.528 1.214 1.215 1.214h6.02c.475 0 .844.37.844.845v6.02c0 .633.529 1.214 1.215 1.214s1.214-.528 1.214-1.214V4.22C33 2.426 31.521 1 29.725 1zm2.059 21.492c-.634 0-1.215.528-1.215 1.214v6.02c0 .475-.37.845-.845.845h-6.02c-.633 0-1.214.528-1.214 1.215 0 .686.528 1.214 1.215 1.214h6.02a3.2 3.2 0 003.22-3.221v-6.125c.053-.634-.527-1.162-1.161-1.162zm-21.491 8.079h-6.02a.834.834 0 01-.845-.845v-6.072c0-.634-.528-1.215-1.214-1.215-.687 0-1.215.528-1.215 1.215v6.02a3.2 3.2 0 003.221 3.22h6.02c.634 0 1.214-.528 1.214-1.214 0-.687-.528-1.109-1.161-1.109z" fill="#fff" stroke="#fff" stroke-width="2"/></svg>