<svg width="39" height="30" fill="none" xmlns="http://www.w3.org/2000/svg"><path clip-rule="evenodd" d="M23.874 6.398c0 2.429-1.959 4.397-4.375 4.397s-4.375-1.968-4.375-4.397C15.124 3.969 17.083 2 19.499 2s4.375 1.97 4.375 4.398zM28.25 21.95c0 3.334-3.918 6.05-8.75 6.05s-8.75-2.709-8.75-6.05c0-3.34 3.918-6.046 8.75-6.046s8.75 2.707 8.75 6.047zm4.881-11.52a2.64 2.64 0 01-1.588 2.471 2.615 2.615 0 01-2.876-.542 2.649 2.649 0 01-.59-2.881 2.625 2.625 0 012.43-1.64 2.61 2.61 0 012.624 2.593v0zm-27.263 0a2.64 2.64 0 001.588 2.471 2.615 2.615 0 002.876-.542c.76-.75.993-1.89.59-2.881a2.625 2.625 0 00-2.43-1.64 2.61 2.61 0 00-2.624 2.593z" stroke="#E7E7E7" stroke-width="2.5" stroke-linecap="round" stroke-linejoin="round"/><path d="M31.862 25.028a1.25 1.25 0 00-.224 2.49l.224-2.49zM37 21.95l1.243.135c.01-.09.01-.18 0-.271L37 21.951zm-5.362-5.565a1.25 1.25 0 10.224 2.49l-.224-2.49zM7.362 27.517a1.25 1.25 0 10-.224-2.49l.224 2.49zM2 21.951l-1.243-.136c-.01.09-.01.181 0 .271L2 21.951zm5.138-3.075a1.25 1.25 0 00.224-2.49l-.224 2.49zm24.5 8.641c3.313.299 6.244-2.122 6.605-5.43l-2.486-.272c-.214 1.966-1.95 3.388-3.895 3.213l-.224 2.49zm6.605-5.702c-.362-3.308-3.293-5.727-6.605-5.429l.224 2.49c1.944-.175 3.68 1.246 3.896 3.21l2.485-.271zM7.138 25.028c-1.945.175-3.681-1.247-3.895-3.213l-2.486.271c.36 3.309 3.292 5.73 6.605 5.431l-.224-2.49zm-3.895-2.941c.215-1.965 1.95-3.386 3.895-3.211l.224-2.49c-3.312-.298-6.243 2.121-6.605 5.429l2.486.272z" fill="#E7E7E7"/></svg>