<svg width="55" height="53" fill="none" xmlns="http://www.w3.org/2000/svg"><path fill-rule="evenodd" clip-rule="evenodd" d="M16.946 0h21.108C47.374 0 55 7.504 55 16.675c0 9.171-7.625 16.675-16.946 16.675H16.946C7.626 33.35 0 25.846 0 16.675c0-3.811 1.317-7.334 3.526-10.15l7.734 24.407c.175.604.614.905 1.227.905h22.325c-6.643-1.85-11.5-7.767-11.5-15.092 0-7.323 4.855-13.24 11.497-15.09H23.31c-.614 0-1.052.258-1.227.905l-6.092 21.3-6.09-21.3c-.104-.384-.301-.631-.572-.769A17.013 17.013 0 0116.946 0zm22.316 7.089c-5.38 0-9.625 3.853-9.625 9.656 0 5.804 4.245 9.657 9.625 9.657 5.378 0 9.624-3.853 9.624-9.657 0-5.803-4.246-9.656-9.624-9.656z" fill="#FEFEFE"/><path d="M42.38 16.699l-1.148-1.956h5.116a7.192 7.192 0 01-1.247 6.594l-2.721-4.638zm3.737-2.594h-7.741l2.557-4.358a7.418 7.418 0 015.184 4.358zm-6.874-4.551c.344 0 .683.025 1.015.07l-2.63 4.482-1.24 2.115-2.556-4.355a7.458 7.458 0 015.411-2.312zm-5.858 2.826l2.627 4.479.044.074.05.085 1.147 1.956h-5.115a7.192 7.192 0 011.247-6.594zm-1.017 7.232h7.741l-2.557 4.358a7.418 7.418 0 01-5.184-4.358zm6.875 4.551c-.344 0-.683-.025-1.015-.07l2.63-4.481 1.241-2.115 2.555 4.355a7.458 7.458 0 01-5.411 2.311zM46.978 53c-2.297 0-4.167-.736-5.613-2.204-1.447-1.472-2.168-3.387-2.168-5.749 0-2.493.733-4.51 2.202-6.049 1.47-1.54 3.411-2.313 5.835-2.313 2.29 0 4.14.74 5.552 2.212 1.412 1.475 2.118 3.42 2.118 5.831 0 2.478-.733 4.48-2.198 5.997C51.244 52.242 49.332 53 46.978 53zm.157-13.255c-1.267 0-2.275.466-3.019 1.405-.744.935-1.118 2.17-1.118 3.71 0 1.562.374 2.797 1.118 3.71.744.908 1.721 1.363 2.927 1.363 1.248 0 2.232-.444 2.965-1.326.729-.886 1.095-2.11 1.095-3.68 0-1.637-.355-2.91-1.06-3.819-.71-.908-1.68-1.363-2.908-1.363zM18.473 52.726H14.86V36.951h3.614v15.775zm-5.143 0H8.764l-4.67-6.853c-.092-.131-.233-.424-.428-.87h-.053v7.723H0V36.951h3.614v7.458h.053c.092-.207.24-.5.45-.879l4.427-6.579h4.304l-5.59 7.525 6.071 8.25z" fill="#FEFEFE"/><path fill-rule="evenodd" clip-rule="evenodd" d="M30.497 42.566l.45.572-.582.444-.452-.572.584-.444zm-2.578-3.268l.453.572-.584.444-.45-.572.581-.444zm-1.716-2.178l.451.57-.581.446-.452-.573.582-.443zm2.576 3.267l.451.572-.582.444-.45-.572.581-.444zm.857 1.088l.453.574-.581.444-.452-.574.58-.444zm-2.247 3.462l.45.571-.58.445-.452-.572.582-.444zm-.859-1.09l.451.573-.582.444-.451-.572.582-.444zm6.01 7.625l.452.571-.584.445-.45-.572.582-.444zm-2.576-3.268l.45.572-.581.444-.45-.572.581-.444zm-1.716-2.179l.45.573-.583.444-.45-.573.583-.444zm2.575 3.268l.45.572-.583.444-.45-.572.583-.444zm.859 1.089l.45.574-.582.443-.45-.572.582-.445zm-2.577-3.267l.452.573-.581.443-.453-.572.582-.444zm2.249-3.46l.45.571-.58.445-.452-.573.582-.443zm.859 1.088l.451.573-.581.444-.453-.573.583-.444zm-5.152-6.535l.451.573-.581.444-.451-.573.581-.444zm-.26-1.34l4.847 6.15 1.5 1.903v1.01l-.077-.098-.581.444.45.571.208-.158v6.05H31.81l-4.846-6.15-1.501-1.904v-1.01l.077.098.582-.444-.45-.572-.21.159v-5.75l-.23-.299H26.8z" fill="#FEFEFE"/><path d="M33.13 36.868h3.6V52.74h-3.6V36.87zm-7.651 5.926v9.945h-3.6V36.87h3.369l.23.297v5.628z" fill="#FEFEFE"/></svg>