<svg width="31" height="34" fill="none" xmlns="http://www.w3.org/2000/svg"><path d="M14.6 10.002c0 .744.852 1.17 1.455.729l6.196-4.547a.902.902 0 000-1.458L16.056.18C15.452-.263 14.6.164 14.6.908v2.137a.184.184 0 01-.172.181C6.366 3.78 0 10.45 0 18.595 0 27.103 6.945 34 15.512 34c8.261 0 15.014-6.412 15.486-14.498.03-.5-.382-.906-.886-.906h-2.737c-.504 0-.909.407-.95.905-.464 5.582-5.172 9.968-10.913 9.968-6.047 0-10.95-4.869-10.95-10.874 0-5.633 4.314-10.266 9.84-10.82a.18.18 0 01.198.18v2.047z" fill="#F5F5F5"/><path fill-rule="evenodd" clip-rule="evenodd" d="M17.002 22.69c.502.326 1.101.49 1.796.49.697 0 1.296-.163 1.797-.487.502-.327.89-.8 1.162-1.417.272-.618.408-1.362.408-2.232.003-.865-.132-1.601-.404-2.209-.272-.608-.661-1.07-1.166-1.386-.503-.32-1.102-.48-1.797-.48-.695 0-1.294.16-1.796.48-.5.316-.887.778-1.16 1.386-.269.605-.405 1.341-.408 2.209-.002.867.133 1.61.405 2.228.272.615.66 1.088 1.162 1.417zm2.803-1.704c-.256.42-.592.63-1.007.63-.275 0-.517-.093-.727-.278-.21-.188-.373-.473-.49-.854-.114-.38-.17-.86-.167-1.44.002-.855.13-1.488.385-1.9.254-.414.587-.622.999-.622.277 0 .52.092.727.274.208.183.37.461.486.835.117.37.175.841.175 1.413.003.873-.124 1.52-.38 1.942z" fill="#F5F5F5"/><path d="M12.466 22.987a.182.182 0 00.183-.182V15.26c0-.1-.082-.181-.183-.181h-1.55a.184.184 0 00-.096.027l-1.833 1.132a.181.181 0 00-.087.154v1.23c0 .14.157.228.278.154l1.495-.908a.036.036 0 01.055.03v5.908c0 .1.082.182.183.182h1.555z" fill="#F5F5F5"/></svg>