<svg width="32" height="32" fill="none" xmlns="http://www.w3.org/2000/svg"><path d="M30.448 24.094a1.5 1.5 0 00-.896-2.863l.896 2.863zm-14.488-.599a1.5 1.5 0 10.08 3l-.08-3zm12.696-.184a1.5 1.5 0 002.687-1.335l-2.687 1.335zm-.187-3.747l-1.372.606.028.061 1.344-.667zm-2.317-8.39l1.488-.183a1.486 1.486 0 00-.01-.066l-1.478.25zM16.016 0a1.5 1.5 0 000 3V0zm0 3a1.5 1.5 0 100-3v3zM5.848 11.177l-1.48-.25a1.493 1.493 0 00-.009.066l1.489.184zM3.53 19.564l1.343.667.029-.06-1.372-.607zM.657 21.976a1.5 1.5 0 102.686 1.335L.657 21.976zm1.791-.745a1.5 1.5 0 10-.896 2.863l.896-2.863zm13.512 5.263a1.5 1.5 0 00.08-2.998l-.08 2.998zm-3.127-1.878a1.5 1.5 0 00-3 0h3zm9.345 0a1.5 1.5 0 00-3 0h3zm7.374-3.385a49.903 49.903 0 01-13.592 2.264l.08 3a52.93 52.93 0 0014.408-2.4l-.896-2.864zm1.79.745l-1.53-3.08-2.687 1.335 1.531 3.08 2.687-1.335zm-1.502-3.019a28.264 28.264 0 01-2.2-7.966l-2.977.368a31.262 31.262 0 002.434 8.811l2.743-1.213zm-2.21-8.032c-.504-2.984-1.573-5.723-3.491-7.731C22.183 1.147 19.477 0 16.016 0v3c2.743 0 4.63.881 5.954 2.266 1.361 1.425 2.257 3.524 2.703 6.159l2.958-.5zM16.017 0C12.555 0 9.842 1.146 7.88 3.192c-1.926 2.007-3.004 4.747-3.51 7.735l2.958.5c.446-2.633 1.348-4.732 2.717-6.158C11.375 3.882 13.27 3 16.016 3V0zM4.36 10.993a28.265 28.265 0 01-2.2 7.964l2.744 1.213a31.264 31.264 0 002.433-8.809l-2.977-.368zm-2.172 7.903l-1.53 3.08 2.686 1.335 1.53-3.08-2.686-1.335zm-.635 5.198a52.902 52.902 0 0014.408 2.4l.08-2.998A49.903 49.903 0 012.448 21.23l-.896 2.863zm8.281.522v1.176h3v-1.176h-3zm0 1.176c0 3.418 2.753 6.208 6.173 6.208v-3c-1.742 0-3.173-1.426-3.173-3.208h-3zM16.006 32c3.42 0 6.172-2.79 6.172-6.208h-3c0 1.782-1.431 3.208-3.172 3.208v3zm6.172-6.208v-1.176h-3v1.176h3z" fill="#fff"/></svg>