<svg width="36" height="42" fill="none" xmlns="http://www.w3.org/2000/svg"><path d="M0 2.8C0 1.48 0 .82.41.41.82 0 1.48 0 2.8 0h6.4c1.32 0 1.98 0 2.39.41.41.41.41 1.07.41 2.39v36.4c0 1.32 0 1.98-.41 2.39-.41.41-1.07.41-2.39.41H2.8c-1.32 0-1.98 0-2.39-.41C0 41.18 0 40.52 0 39.2V2.8zm24 0c0-1.32 0-1.98.41-2.39C24.82 0 25.48 0 26.8 0h6.4c1.32 0 1.98 0 2.39.41.41.41.41 1.07.41 2.39v36.4c0 1.32 0 1.98-.41 2.39-.41.41-1.07.41-2.39.41h-6.4c-1.32 0-1.98 0-2.39-.41-.41-.41-.41-1.07-.41-2.39V2.8z" fill="#fff"/></svg>