<svg width="36" height="32" fill="none" xmlns="http://www.w3.org/2000/svg"><path d="M34.2 0c.477 0 .935.187 1.273.52.337.334.527.786.527 1.258v12.444h-3.6V3.556H3.6v24.888h10.8V32H1.8c-.477 0-.935-.187-1.273-.52A1.767 1.767 0 010 30.221V1.778C0 1.306.19.854.527.52.865.187 1.323 0 1.8 0h32.4zm0 17.778c.477 0 .935.187 1.273.52.337.334.527.786.527 1.258v10.666c0 .472-.19.924-.527 1.257A1.811 1.811 0 0134.2 32H19.8c-.477 0-.935-.187-1.273-.52A1.767 1.767 0 0118 30.221V19.556c0-.472.19-.924.527-1.258.338-.333.796-.52 1.273-.52h14.4z" fill="#fff"/></svg>