<svg width="36" height="32" fill="none" xmlns="http://www.w3.org/2000/svg"><path d="M1.8 0h32.4c.477 0 .935.187 1.273.52.337.334.527.786.527 1.258v28.444c0 .472-.19.924-.527 1.257A1.811 1.811 0 0134.2 32H1.8c-.477 0-.935-.187-1.273-.52A1.767 1.767 0 010 30.221V1.778C0 1.306.19.854.527.52.865.187 1.323 0 1.8 0zm8.1 14.667v-4H7.2v10.666h2.7v-4h3.6v4h2.7V10.667h-2.7v4H9.9zm15.75 6.666H27c.477 0 .935-.187 1.273-.52a1.77 1.77 0 00.527-1.257v-7.112c0-.471-.19-.923-.527-1.257a1.812 1.812 0 00-1.273-.52h-5.4c-.477 0-.935.187-1.273.52a1.766 1.766 0 00-.527 1.257v7.112c0 .471.19.923.527 1.257.338.333.796.52 1.273.52h1.35V24h2.7v-2.667zm-3.15-8h3.6v5.334h-3.6v-5.334z" fill="#fff"/></svg>