<svg width="80" height="40" fill="none" xmlns="http://www.w3.org/2000/svg"><g clip-path="url(#clip0_1_194)"><path d="M79.357 3.438C79.142 1.677 77.835.273 76.17 0H3.218C1.395.3 0 1.954 0 3.949v32.053C0 38.21 1.707 40 3.815 40h71.759c1.94 0 3.543-1.52 3.783-3.486V3.438z" fill="#F6C700"/><path d="M9.571 8.038h6.298V32.28H9.57V8.038zm18.197 11.166l-.901-6.158a179.486 179.486 0 00-.755-5.167h-8.165v24.242h5.517l.019-16.007 2.321 16.007h3.93l2.2-16.363.021 16.363h5.499V7.879h-8.227l-1.459 11.325zm20.082-6.282c.07.31.105 1.01.105 2.106v9.399c0 1.613-.105 2.601-.313 2.966-.21.364-.767.545-1.671.545V12.025c.686 0 1.154.073 1.402.217a1 1 0 01.477.68zm2.845 18.952c.75-.164 1.379-.454 1.89-.867.508-.414.866-.987 1.07-1.72.206-.731.327-2.184.327-4.358v-8.512c0-2.294-.09-3.832-.229-4.613-.14-.782-.49-1.493-1.049-2.13-.56-.638-1.377-1.097-2.45-1.375-1.076-.28-2.829-.42-5.877-.42h-4.698v24.242h7.629c1.758-.055 2.887-.137 3.387-.247zm13.448-3.623c-.116.308-.624.464-1.008.464-.375 0-.625-.15-.752-.449-.127-.298-.189-.978-.189-2.044v-6.406c0-1.104.055-1.793.167-2.068.11-.271.353-.41.729-.41.383 0 .898.156 1.03.47.132.313.198.982.198 2.008v6.212c-.04 1.276-.098 2.017-.175 2.223zm-8.016 3.659h5.67c.236-.926.365-1.441.391-1.545.514.622 1.078 1.088 1.698 1.397.617.31 1.54.465 2.255.465.995 0 1.854-.26 2.578-.784.723-.521 1.184-1.14 1.38-1.85.196-.713.294-1.795.294-3.25v-6.8c0-1.463-.033-2.418-.098-2.867-.065-.448-.258-.905-.58-1.373-.321-.468-.789-.831-1.402-1.09-.612-.26-1.335-.39-2.17-.39-.724 0-1.651.145-2.27.43-.616.287-1.177.72-1.679 1.301V7.668h-6.067V31.91z" fill="#000"/></g><defs><clipPath id="clip0_1_194"><path fill="#fff" d="M0 0h79.357v40H0z"/></clipPath></defs></svg>