<svg width="38" height="32" fill="none" xmlns="http://www.w3.org/2000/svg"><path d="M11.875 1.185c0-.654.532-1.185 1.188-1.185h23.75C37.468 0 38 .53 38 1.185v3.556c0 .654-.532 1.185-1.188 1.185h-23.75c-.655 0-1.187-.53-1.187-1.185V1.185zm0 13.037c0-.654.532-1.185 1.188-1.185h23.75c.655 0 1.187.53 1.187 1.185v3.556c0 .654-.532 1.185-1.188 1.185h-23.75c-.655 0-1.187-.53-1.187-1.185v-3.556zM1.188 26.074c-.656 0-1.188.53-1.188 1.185v3.556C0 31.469.532 32 1.188 32H4.75c.656 0 1.188-.53 1.188-1.185v-3.556c0-.654-.532-1.185-1.188-1.185H1.187zm11.875 0c-.656 0-1.188.53-1.188 1.185v3.556c0 .654.532 1.185 1.188 1.185h23.75c.655 0 1.187-.53 1.187-1.185v-3.556c0-.654-.532-1.185-1.188-1.185h-23.75zM1.188 13.037c-.656 0-1.188.53-1.188 1.185v3.556c0 .654.532 1.185 1.188 1.185H4.75c.656 0 1.188-.53 1.188-1.185v-3.556c0-.654-.532-1.185-1.188-1.185H1.187zM1.188 0C.531 0 0 .53 0 1.185v3.556c0 .654.532 1.185 1.188 1.185H4.75c.656 0 1.188-.53 1.188-1.185V1.185C5.938.531 5.405 0 4.75 0H1.187z" fill="#F5F5F5"/></svg>