<svg width="32" height="32" fill="none" xmlns="http://www.w3.org/2000/svg"><path fill-rule="evenodd" clip-rule="evenodd" d="M19.38 1.801l.116 1.154c.163 1.634.245 2.45.798 2.68.553.228 1.188-.292 2.459-1.331l.897-.734c.666-.545.998-.817 1.383-.798.385.02.69.323 1.297.932l1.966 1.965c.608.609.913.913.932 1.298.019.384-.253.717-.798 1.383l-.735.898c-1.04 1.27-1.559 1.906-1.33 2.459.23.552 1.046.634 2.68.797l1.154.116c.856.085 1.284.128 1.542.414.259.285.259.716.259 1.576v2.78c0 .86 0 1.29-.259 1.576-.258.286-.686.328-1.542.414l-1.155.115c-1.633.164-2.45.245-2.679.798-.229.553.29 1.188 1.33 2.459l.735.898c.544.665.817.998.798 1.383-.02.385-.324.689-.932 1.297l-1.966 1.966c-.608.608-.912.912-1.297.931-.385.02-.718-.253-1.383-.797l-.897-.734c-1.271-1.04-1.906-1.56-2.46-1.33-.552.228-.634 1.045-.797 2.679l-.115 1.154c-.086.856-.129 1.284-.415 1.542-.285.259-.715.259-1.576.259h-2.78c-.86 0-1.29 0-1.575-.259-.286-.258-.329-.686-.415-1.542l-.115-1.155c-.163-1.634-.245-2.45-.798-2.68-.553-.228-1.188.291-2.459 1.331l-.898.735c-.666.545-1 .817-1.384.798-.385-.019-.689-.323-1.297-.931L3.703 26.33c-.608-.608-.912-.912-.931-1.297-.02-.385.253-.718.797-1.384l.735-.898c1.04-1.27 1.56-1.906 1.33-2.459-.228-.553-1.045-.634-2.679-.798l-1.154-.115c-.856-.086-1.284-.128-1.542-.414C0 18.68 0 18.25 0 17.39v-2.78c0-.86 0-1.29.259-1.576.258-.286.686-.329 1.542-.414l1.154-.116c1.634-.163 2.45-.245 2.68-.797.229-.553-.291-1.189-1.33-2.46l-.736-.898c-.545-.666-.817-.998-.798-1.383.02-.385.324-.69.932-1.297l1.966-1.966c.608-.609.912-.913 1.297-.932.385-.019.718.253 1.383.798l.9.736c1.27 1.04 1.905 1.559 2.458 1.33.553-.229.635-1.046.798-2.68l.115-1.154c.086-.856.129-1.284.415-1.542C13.32 0 13.75 0 14.61 0h2.78c.86 0 1.29 0 1.576.259.286.258.329.686.415 1.542zM16 22.4a6.4 6.4 0 100-12.8 6.4 6.4 0 000 12.8z" fill="#fff"/></svg>