<svg width="30" height="30" fill="none" xmlns="http://www.w3.org/2000/svg"><path d="M2.181 17.77a1.5 1.5 0 10-.362 2.977l.362-2.978zm7.072 10.41a1.5 1.5 0 102.978-.363l-2.978.363zM2.445 13.51a1.5 1.5 0 00-.32 2.982l.32-2.982zM13.51 27.876a1.5 1.5 0 002.983-.32l-2.983.32zm-11.33-5.08a1.5 1.5 0 10-.36 2.979l.36-2.978zm2.045 5.384a1.5 1.5 0 102.978-.36l-2.978.36zm15.766-1.68a1.5 1.5 0 00.017 3l-.017-3zm5.684-.888l-1.066-1.055 1.066 1.055zM28 19.91h-1.5v.009l1.5-.009zm0-9.82l-1.5-.009v.009H28zm-2.325-5.702L24.61 5.443l1.066-1.055zM20 2l.008-1.5H20V2zM10 2V.5h-.008l.009 1.5zM4.326 4.388l1.067 1.055-1.067-1.055zM.5 10.098a1.5 1.5 0 103-.017l-3 .017zm1.319 10.65a8.529 8.529 0 017.434 7.433l2.978-.363A11.529 11.529 0 002.18 17.77l-.362 2.978zm.305-4.257c6 .646 10.74 5.385 11.385 11.385l2.983-.32A15.832 15.832 0 002.445 13.508l-.32 2.982zm-.304 9.284a2.757 2.757 0 012.405 2.405l2.978-.36a5.757 5.757 0 00-5.023-5.023l-.36 2.978zM20.008 29.5a9.545 9.545 0 006.734-2.833l-2.133-2.11A6.546 6.546 0 0119.99 26.5l.017 3zm6.734-2.833a9.546 9.546 0 002.758-6.765l-3 .017a6.545 6.545 0 01-1.891 4.638l2.133 2.11zM29.5 19.91v-9.82h-3v9.82h3zm0-9.812a9.546 9.546 0 00-2.758-6.765l-2.133 2.11A6.545 6.545 0 0126.5 10.08l3 .017zm-2.758-6.765A9.545 9.545 0 0020.008.5l-.017 3a6.545 6.545 0 014.618 1.943l2.133-2.11zM20 .5H10v3h10v-3zM9.992.5a9.545 9.545 0 00-6.734 2.833l2.134 2.11A6.545 6.545 0 0110.009 3.5l-.017-3zM3.258 3.333A9.545 9.545 0 00.5 10.098l3-.017a6.545 6.545 0 011.892-4.638l-2.134-2.11z" fill="#E7E7E7"/></svg>