<svg width="39" height="32" fill="none" xmlns="http://www.w3.org/2000/svg"><path d="M34.352 31.64c-.2.232-.494.36-.802.36h-2.98c-1.144 0-1.688-1.834-.874-2.625 2.668-2.592 4.321-6.193 4.321-10.175 0-7.894-6.5-14.294-14.517-14.294S4.983 11.306 4.983 19.2c0 3.982 1.653 7.583 4.321 10.175.814.791.27 2.625-.874 2.625H5.45c-.308 0-.603-.128-.802-.36C1.75 28.29 0 23.946 0 19.2 0 8.596 8.73 0 19.5 0S39 8.596 39 19.2c0 4.745-1.75 9.09-4.648 12.44z" fill="#fff"/><path d="M27.949 14.41a1.055 1.055 0 000-1.508l-1.532-1.508a1.095 1.095 0 00-1.533 0l-4.654 4.583a.227.227 0 01-.19.06A3.87 3.87 0 0019.5 16c-2.094 0-3.792 1.672-3.792 3.733 0 2.062 1.698 3.734 3.792 3.734s3.792-1.672 3.792-3.734c0-.192-.015-.381-.044-.566a.218.218 0 01.062-.19l4.639-4.566z" fill="#fff"/></svg>