<svg width="22" height="22" fill="none" xmlns="http://www.w3.org/2000/svg"><path d="M2 15.286a1 1 0 10-2 0h2zm-1 1.428H0h1zm21-1.428a1 1 0 10-2 0h2zM11.78 1.625a1 1 0 10-1.56-1.25l1.56 1.25zM4.506 7.518a1 1 0 001.562 1.25l-1.562-1.25zM11.78.375a1 1 0 00-1.562 1.25L11.78.375zm4.152 8.393a1 1 0 001.562-1.25l-1.562 1.25zM12 1a1 1 0 10-2 0h2zm-2 15.714a1 1 0 102 0h-2zM0 15.286v1.428h2v-1.428H0zm0 1.428A5.286 5.286 0 005.286 22v-2A3.286 3.286 0 012 16.714H0zM5.286 22h11.428v-2H5.286v2zm11.428 0A5.286 5.286 0 0022 16.714h-2A3.286 3.286 0 0116.714 20v2zM22 16.714v-1.428h-2v1.428h2zM10.22.375L4.504 7.518l1.562 1.25 5.714-7.143-1.562-1.25zm0 1.25l5.713 7.143 1.562-1.25L11.781.375l-1.562 1.25zM10 1v15.714h2V1h-2z" fill="#fff"/></svg>