<svg width="22" height="22" fill="none" xmlns="http://www.w3.org/2000/svg"><path d="M5.118 1h-.785A3.333 3.333 0 001 4.333v2.843M5.118 1h11.764M5.118 1v6.176m0 13.824h-.785A3.333 3.333 0 011 17.667v-2.844M5.118 21h11.764M5.118 21v-6.177M16.882 1h.785A3.333 3.333 0 0121 4.333v2.843M16.882 1v6.176m0 13.824h.785A3.333 3.333 0 0021 17.667v-2.844M16.882 21v-6.177m0-3.823H5.118m11.764 0v3.823m0-3.823V7.176M5.118 11V7.176m0 3.824v3.823m0-7.647H1m0 0v7.647m4.118 0H1m15.882 0H21m0 0V7.176m-4.118 0H21" stroke="#fff" stroke-width="1.5" stroke-linecap="round" stroke-linejoin="round"/></svg>