<svg width="20" height="20" fill="none" xmlns="http://www.w3.org/2000/svg"><path d="M1 9c0-3.771 0-5.657 1.172-6.828C3.343 1 5.229 1 9 1h2c3.771 0 5.657 0 6.828 1.172C19 3.343 19 5.229 19 9v2c0 3.771 0 5.657-1.172 6.828C16.657 19 14.771 19 11 19H9c-3.771 0-5.657 0-6.828-1.172C1 16.657 1 14.771 1 11V9z" stroke="#fff" stroke-width="2"/><path fill-rule="evenodd" clip-rule="evenodd" d="M16.998 12.29l-.344-.343-.015-.016c-.401-.4-.724-.723-1.008-.962-.292-.246-.576-.434-.909-.534a2.5 2.5 0 00-1.444 0c-.333.1-.617.288-.91.534-.283.239-.606.562-1.007.962l-.015.016c-.3.3-.5.5-.663.634-.161.133-.231.155-.26.16a.5.5 0 01-.349-.067c-.024-.016-.081-.062-.181-.245a11.023 11.023 0 01-.38-.835l-.053-.124-.012-.029c-.365-.85-.655-1.527-.937-2.028-.287-.51-.606-.915-1.065-1.145a2.5 2.5 0 00-1.33-.256c-.513.043-.959.3-1.415.667-.448.361-.969.881-1.623 1.536l-.022.021-.056.057v1.414l.763-.764c.681-.68 1.164-1.162 1.565-1.485.4-.321.655-.431.871-.45a1.5 1.5 0 01.799.154c.194.097.39.294.641.741.253.45.522 1.075.901 1.96l.054.125.01.023c.154.36.284.664.41.896.13.239.29.466.534.617a1.5 1.5 0 001.049.202c.282-.05.514-.202.723-.375.204-.168.438-.402.716-.68l.017-.017c.42-.42.713-.712.96-.92.242-.205.405-.297.554-.342.282-.085.584-.085.866 0 .149.045.312.137.554.341.247.209.54.501.96.921l1.029 1.028c.013-.41.019-.87.022-1.392z" fill="#fff"/><path d="M16.654 11.947l-.353.354.353-.354zm.344.343l.5.003v-.209l-.147-.147-.353.353zm-.36-.359l-.353.354.354-.354zm-1.007-.962l-.322.382.322-.382zm-.909-.534l.145-.479-.145.479zm-1.444 0l-.145-.479.145.479zm-.91.534l.323.382-.322-.382zm-1.007.962l.354.354-.354-.354zm-.015.016l.353.354-.353-.354zm-.663.634l.319.385-.319-.385zm-.26.16l-.086-.493.087.493zm-.349-.067l.263-.426-.263.426zm-.181-.245l.439-.24-.44.24zm-.38-.835l-.46.197.46-.197zm-.053-.124l-.46.196.46-.196zm-.012-.029l.46-.197-.003-.003-.457.2zm0 0l-.46.197.002.004.458-.2zM8.51 9.413l.435-.246-.435.246zM7.446 8.268l-.224.447.224-.447zm-1.33-.256l-.043-.498.042.498zM4.7 8.679l.314.39-.314-.39zm-1.623 1.536l-.354-.354-.005.006.359.348zm0 0l.354.353.005-.005-.359-.348zm-.022.021l.354.354-.354-.354zM3 10.293l-.354-.354-.146.147v.207H3zm0 1.414h-.5l.002 1.205.852-.852L3 11.706zm.763-.764l.354.354-.354-.354zm1.565-1.485l-.313-.39.313.39zm.871-.45l.042.498-.042-.498zm.799.154l.224-.447-.224.447zm.641.741l-.436.245.436-.245zm.901 1.96l.46-.197-.46.197zm.054.125l.46-.197-.46.197zm.01.023l.461-.193-.002-.005-.46.197zm0 0l-.462.192.002.005.46-.197zm.41.896l-.438.24.439-.24zm.534.617l-.263.425.263-.425zm1.049.202l-.087-.493.087.493zm.723-.375l.32.386-.32-.386zm.716-.68l-.354-.353.354.353zm.017-.017l-.354-.353.354.353zm.96-.92l.322.382-.322-.383zm.554-.342l.144.479-.144-.479zm.866 0l-.144.479.144-.479zm.554.341l.322-.382-.322.382zm.96.921l.354-.353-.354.353zm1.029 1.028l-.354.354.816.816.037-1.153-.5-.017zm-.675-1.381l.343.343.707-.707-.343-.343-.707.707zm-.016-.016l.016.016.707-.707-.016-.016-.707.707zm-.976-.934c.264.222.57.528.976.934l.707-.707c-.395-.395-.735-.736-1.038-.992l-.645.765zm-.731-.437c.24.072.464.212.731.437l.645-.765c-.317-.267-.662-.502-1.088-.63l-.288.958zm-1.156 0a2 2 0 011.156 0l.289-.958a3 3 0 00-1.734 0l.29.958zm-.731.437c.267-.225.49-.365.731-.437l-.289-.958c-.425.128-.77.363-1.087.63l.645.765zm-.976.934c.406-.406.712-.712.976-.934l-.645-.765c-.303.256-.643.597-1.038.992l.707.707zm-.016.016l.016-.016-.707-.707-.016.016.707.707zm-.697.665c.185-.153.405-.373.697-.665l-.707-.707c-.307.307-.487.486-.628.601l.638.771zm-.492.267c.156-.027.307-.114.492-.267l-.638-.77a.792.792 0 01-.102.075l.018-.008a.333.333 0 01.057-.015l.173.985zm-.699-.134a1 1 0 00.7.134l-.174-.985-.526.85zm-.357-.431c.115.21.222.347.357.43l.526-.85c.02.012.036.025.048.036l.014.014a.8.8 0 01-.067-.109l-.878.479zm-.4-.877c.162.38.285.666.4.877l.878-.479c-.087-.16-.188-.393-.36-.792l-.919.394zM9 11.666l.053.125.92-.394-.054-.124-.919.393zm-.012-.028l.012.028.92-.393-.013-.028-.92.393zm.002.004l.915-.401-.915.401zm-.915-1.984c.266.473.544 1.12.913 1.98l.92-.393c-.361-.841-.663-1.547-.962-2.078l-.871.49zm-.853-.943c.327.164.584.465.853.943l.871-.49c-.304-.542-.684-1.05-1.276-1.347l-.448.894zM6.157 8.51a2 2 0 011.065.205l.448-.894a3 3 0 00-1.597-.307l.084.996zm-1.142.558c.427-.344.778-.527 1.142-.558l-.084-.996c-.66.055-1.201.386-1.685.775l.627.78zm-1.583 1.5c.662-.662 1.16-1.16 1.583-1.5l-.627-.779c-.475.382-1.017.925-1.664 1.572l.708.707zm.005-.005l-.718-.696.718.696zm-.027.027l.022-.022-.708-.707-.021.022.707.707zm-.056.056l.056-.056-.707-.707-.057.056.708.707zm-.854-.353V11h1v-.707h-1zm0 .707v.707l1-.001V11h-1zm.91-.41l-.763.763.707.707.763-.763-.707-.707zm1.605-1.522c-.428.345-.932.85-1.605 1.522l.707.707c.69-.69 1.15-1.147 1.525-1.45l-.627-.779zm1.142-.558c-.364.03-.715.214-1.142.558l.627.78c.37-.3.53-.336.6-.342l-.085-.996zm1.065.205a2 2 0 00-1.065-.205l.084.996a1 1 0 01.533.103l.448-.894zm.853.943c-.27-.478-.526-.78-.853-.943l-.448.894c.061.031.196.124.43.54l.87-.491zM9 11.666c-.375-.874-.656-1.53-.925-2.008l-.872.49c.237.42.494 1.017.878 1.912L9 11.666zm.053.125L9 11.666l-.92.394.054.125.92-.394zm.01.022l-.01-.022-.919.394.01.022.919-.394zm.002.005l-.923.385.923-.385zm.389.85a11.033 11.033 0 01-.391-.854l-.92.393c.152.354.293.682.433.94l.878-.48zm.357.43c-.134-.083-.242-.22-.357-.43l-.878.479c.145.265.355.583.709.802l.526-.85zm.7.135a1 1 0 01-.7-.134l-.526.85a2 2 0 001.398.27l-.173-.986zm.49-.267c-.184.153-.335.24-.49.267l.172.985c.41-.072.723-.289.956-.481l-.637-.771zm.681-.648c-.284.284-.499.498-.68.648l.637.77c.226-.186.478-.44.75-.711l-.707-.707zm.017-.017l-.017.017.707.707.017-.017-.707-.707zm.992-.95c-.267.225-.578.536-.992.95l.707.707c.427-.426.702-.701.93-.892l-.645-.765zm.731-.437c-.24.072-.464.212-.731.437l.644.765c.218-.184.32-.228.376-.245l-.289-.957zm1.156 0a2 2 0 00-1.156 0l.29.957a1 1 0 01.577 0l.289-.957zm.731.437c-.267-.225-.49-.365-.731-.437l-.29.957c.057.017.16.061.377.245l.644-.765zm.992.95c-.414-.414-.725-.725-.992-.95l-.644.765c.227.191.502.466.929.892l.707-.707zm1.028 1.028l-1.028-1.028-.707.707 1.028 1.028.707-.707zm.146.37c.014-.417.02-.883.023-1.406l-1-.005c-.003.52-.01.975-.022 1.378l1 .033z" fill="#fff"/><circle cx="14.5" cy="5.5" r="1.5" fill="#fff"/></svg>